<svg xmlns="http://www.w3.org/2000/svg" viewBox="0 0 700 510" role="img" aria-label="Grande Ourse — Ursa Major le 7 septembre 2026 à 22 heures en Belgique">
<rect width="700" height="510" fill="#030914"/>
<g><rect x="0" y="0" width="700" height="510" rx="12" fill="#071326" stroke="#7187a8"/><text x="350" y="30" text-anchor="middle" fill="#ffffff" font-size="19" font-family="sans-serif" font-weight="bold">7 septembre 2026 — 22 h CEST</text><text x="350" y="52" text-anchor="middle" fill="#b9c9df" font-size="13" font-family="sans-serif">latitude 50° N — Nord en haut — Est à droite — LST 19.43 h</text><circle cx="350" cy="305" r="205" fill="#0b1d37" stroke="#8297b6" stroke-width="2"/><circle cx="350" cy="305" r="136.7" fill="none" stroke="#314b70" stroke-dasharray="4 5"/><text x="355" y="182.3" fill="#839bbd" font-size="11" font-family="sans-serif">30°</text><circle cx="350" cy="305" r="68.3" fill="none" stroke="#314b70" stroke-dasharray="4 5"/><text x="355" y="250.7" fill="#839bbd" font-size="11" font-family="sans-serif">60°</text><text x="350.0" y="87.0" text-anchor="middle" fill="#ffffff" font-size="15" font-family="sans-serif" font-weight="bold">N</text><text x="573.0" y="310.0" text-anchor="middle" fill="#ffffff" font-size="15" font-family="sans-serif" font-weight="bold">E</text><text x="350.0" y="533.0" text-anchor="middle" fill="#ffffff" font-size="15" font-family="sans-serif" font-weight="bold">S</text><text x="127.0" y="310.0" text-anchor="middle" fill="#ffffff" font-size="15" font-family="sans-serif" font-weight="bold">O</text><line x1="289.1" y1="182.3" x2="277.0" y2="177.3" stroke="#91a8c8" stroke-width="1.5"/><line x1="277.0" y1="177.3" x2="262.8" y2="193.8" stroke="#91a8c8" stroke-width="1.5"/><line x1="262.8" y1="193.8" x2="269.4" y2="201.7" stroke="#91a8c8" stroke-width="1.5"/><line x1="269.4" y1="201.7" x2="289.1" y2="182.3" stroke="#91a8c8" stroke-width="1.5"/><line x1="269.4" y1="201.7" x2="265.6" y2="215.0" stroke="#91a8c8" stroke-width="1.5"/><line x1="265.6" y1="215.0" x2="263.9" y2="225.7" stroke="#91a8c8" stroke-width="1.5"/><line x1="263.9" y1="225.7" x2="252.7" y2="239.0" stroke="#91a8c8" stroke-width="1.5"/><line x1="262.8" y1="193.8" x2="264.2" y2="226.1" stroke="#91a8c8" stroke-width="1.5"/><line x1="264.2" y1="226.1" x2="246.7" y2="172.5" stroke="#91a8c8" stroke-width="1.5"/><line x1="246.7" y1="172.5" x2="292.5" y2="144.3" stroke="#91a8c8" stroke-width="1.5"/><line x1="292.5" y1="144.3" x2="289.1" y2="182.3" stroke="#91a8c8" stroke-width="1.5"/><circle cx="289.1" cy="182.3" r="5.9" fill="#ffe28a" stroke="#fff8d0"/><text x="299.1" y="174.3" fill="#ffffff" font-size="11" font-family="sans-serif">Dubhe (1.79)</text><circle cx="277.0" cy="177.3" r="5.3" fill="#ffe28a" stroke="#fff8d0"/><text x="287.0" y="169.3" fill="#ffffff" font-size="11" font-family="sans-serif">Merak (2.37)</text><circle cx="262.8" cy="193.8" r="5.2" fill="#ffe28a" stroke="#fff8d0"/><text x="272.8" y="185.8" fill="#ffffff" font-size="11" font-family="sans-serif">Phecda (2.44)</text><circle cx="269.4" cy="201.7" r="4.2" fill="#ffe28a" stroke="#fff8d0"/><text x="279.4" y="193.7" fill="#ffffff" font-size="11" font-family="sans-serif">Megrez (3.31)</text><circle cx="265.6" cy="215.0" r="6.0" fill="#ffe28a" stroke="#fff8d0"/><text x="275.6" y="207.0" fill="#ffffff" font-size="11" font-family="sans-serif">Alioth (1.77)</text><circle cx="263.9" cy="225.7" r="5.4" fill="#ffe28a" stroke="#fff8d0"/><text x="273.9" y="217.7" fill="#ffffff" font-size="11" font-family="sans-serif">Mizar (2.27)</text><circle cx="252.7" cy="239.0" r="5.9" fill="#ffe28a" stroke="#fff8d0"/><text x="262.7" y="231.0" fill="#ffffff" font-size="11" font-family="sans-serif">Alkaid (1.86)</text><circle cx="264.2" cy="226.1" r="3.4" fill="#ffe28a" stroke="#fff8d0"/><text x="274.2" y="218.1" fill="#ffffff" font-size="11" font-family="sans-serif">Alcor (4)</text><circle cx="246.7" cy="172.5" r="4.5" fill="#ffe28a" stroke="#fff8d0"/><text x="256.7" y="164.5" fill="#ffffff" font-size="11" font-family="sans-serif">Psi UMa (3.01)</text><circle cx="292.5" cy="144.3" r="4.4" fill="#ffe28a" stroke="#fff8d0"/><text x="302.5" y="136.3" fill="#ffffff" font-size="11" font-family="sans-serif">Theta UMa (3.17)</text><circle cx="301.0" cy="129.7" r="4.4" fill="#ffe28a" stroke="#fff8d0"/><text x="311.0" y="121.7" fill="#ffffff" font-size="11" font-family="sans-serif">Iota UMa (3.14)</text><text x="350" y="493" text-anchor="middle" fill="#9eb1cb" font-size="11" font-family="sans-serif">Cercle extérieur = horizon ; centre = zénith ; étoiles sous l’horizon non dessinées</text></g>
</svg>